name C:\Users\u0150099\Documents\master_thesis\3dpredictsim\Results\debug\Fal_s1_mtp_sd_ATx70_Fpsl10_MTPp_k17_d04_ig21.mot
datacolumns 126
datarows 4
range 0.54221102 0.57474369
endheader
time	pelvis_tilt	pelvis_list	pelvis_rotation	pelvis_tx	pelvis_ty	pelvis_tz	hip_flexion_l	hip_adduction_l	hip_rotation_l	hip_flexion_r	hip_adduction_r	hip_rotation_r	knee_angle_l	knee_angle_r	ankle_angle_l	ankle_angle_r	subtalar_angle_l	subtalar_angle_r	mtp_angle_l	mtp_angle_r	lumbar_extension	lumbar_bending	lumbar_rotation	arm_flex_l	arm_add_l	arm_rot_l	arm_flex_r	arm_add_r	arm_rot_r	elbow_flex_l	elbow_flex_r	pro_sup_l	pro_sup_r	glut_med1_l/activation	glut_med2_l/activation	glut_med3_l/activation	glut_min1_l/activation	glut_min2_l/activation	glut_min3_l/activation	semimem_l/activation	semiten_l/activation	bifemlh_l/activation	bifemsh_l/activation	sar_l/activation	add_long_l/activation	add_brev_l/activation	add_mag1_l/activation	add_mag2_l/activation	add_mag3_l/activation	tfl_l/activation	pect_l/activation	grac_l/activation	glut_max1_l/activation	glut_max2_l/activation	glut_max3_l/activation	iliacus_l/activation	psoas_l/activation	quad_fem_l/activation	gem_l/activation	peri_l/activation	rect_fem_l/activation	vas_med_l/activation	vas_int_l/activation	vas_lat_l/activation	med_gas_l/activation	lat_gas_l/activation	soleus_l/activation	tib_post_l/activation	flex_dig_l/activation	flex_hal_l/activation	tib_ant_l/activation	per_brev_l/activation	per_long_l/activation	per_tert_l/activation	ext_dig_l/activation	ext_hal_l/activation	ercspn_l/activation	intobl_l/activation	extobl_l/activation	glut_med1_r/activation	glut_med2_r/activation	glut_med3_r/activation	glut_min1_r/activation	glut_min2_r/activation	glut_min3_r/activation	semimem_r/activation	semiten_r/activation	bifemlh_r/activation	bifemsh_r/activation	sar_r/activation	add_long_r/activation	add_brev_r/activation	add_mag1_r/activation	add_mag2_r/activation	add_mag3_r/activation	tfl_r/activation	pect_r/activation	grac_r/activation	glut_max1_r/activation	glut_max2_r/activation	glut_max3_r/activation	iliacus_r/activation	psoas_r/activation	quad_fem_r/activation	gem_r/activation	peri_r/activation	rect_fem_r/activation	vas_med_r/activation	vas_int_r/activation	vas_lat_r/activation	med_gas_r/activation	lat_gas_r/activation	soleus_r/activation	tib_post_r/activation	flex_dig_r/activation	flex_hal_r/activation	tib_ant_r/activation	per_brev_r/activation	per_long_r/activation	per_tert_r/activation	ext_dig_r/activation	ext_hal_r/activation	ercspn_r/activation	intobl_r/activation	extobl_r/activation	
          0.54221102	         -2.93017651	          2.80522479	         -6.04798815	          0.72114066	          0.90167303	          0.00410052	         29.35695417	          4.05799352	         -0.58808189	        -17.20367225	         -1.88396892	          8.05265348	         -9.20795077	         -8.10433640	          6.36727211	          4.33797397	         -6.11887729	         13.72521075	         -0.04767005	         15.46197082	         -2.50964517	         -1.52776779	          2.05594117	        -11.22532689	        -13.48043693	          3.35949370	          7.47749700	        -13.55459639	         19.32284214	         21.54388604	         38.86560074	         86.51662706	         86.51662706	          0.09557778	          0.05000016	          0.05000017	          0.05000014	          0.05000013	          0.05000033	          0.10370620	          0.05903696	          0.26949286	          0.05000004	          0.05000007	          0.15067380	          0.25322432	          0.19560743	          0.22032943	          0.15720503	          0.05000020	          0.06425726	          0.12476176	          0.06695976	          0.10230416	          0.11861722	          0.05000002	          0.05000001	          0.21447093	          0.05000010	          0.05000003	          0.05000002	          0.15231468	          0.15566153	          0.12965332	          0.05831305	          0.05000067	          0.05903683	          0.05000001	          0.05000005	          0.05000008	          0.53061445	          0.39180654	          0.21737277	          0.29004231	          0.54652112	          0.29269724	          0.06511047	          0.08777509	          0.09735258	          0.25399104	          0.10074213	          0.07185597	          0.35528929	          0.22813266	          0.12930625	          0.05000031	          0.05000005	          0.05000003	          0.07469204	          0.11245963	          0.05499651	          0.05000015	          0.05000009	          0.05000025	          0.05000025	          0.53562725	          0.05000306	          0.05000009	          0.05000040	          0.05000023	          0.05000017	          0.32658159	          0.64746150	          0.05000001	          0.05000006	          0.05000004	          0.26698231	          0.05000886	          0.05001036	          0.05000206	          0.30226180	          0.40186952	          0.32244696	          0.28799854	          0.40007601	          0.48521264	          0.05000000	          0.07197981	          0.20431426	          0.05000002	          0.05000000	          0.05000001	          0.05000000	          0.05000000	          0.05000000	
          0.55305524	         -2.92795367	          3.00869813	         -6.35657498	          0.73872748	          0.90075147	          0.00378085	         28.64031126	          4.59037053	         -0.42175723	        -17.07271863	         -2.29552082	          7.89445575	         -9.01303453	        -10.09562408	          5.73567021	          3.13864361	         -6.42900567	         14.49060036	          0.00949229	         16.70141399	         -2.28940946	         -1.79263258	          2.17309024	        -12.19425405	        -13.45459563	          3.40899873	          7.07423382	        -13.50668680	         19.21657055	         21.22541951	         40.26119196	         86.51662706	         86.51662706	          0.08094757	          0.05000004	          0.05000003	          0.05000010	          0.05000008	          0.05000004	          0.08783175	          0.05000011	          0.22824125	          0.05000004	          0.05000020	          0.12761007	          0.21447313	          0.37434511	          0.28227518	          0.13780614	          0.05000002	          0.05442527	          0.10566444	          0.05903649	          0.11867965	          0.17189194	          0.05000008	          0.05000018	          0.54407849	          0.16035612	          0.08051001	          0.06970700	          0.22130028	          0.24395500	          0.18749601	          0.05000000	          0.05000000	          0.05000000	          0.05543575	          0.05103606	          0.05000041	          0.60604063	          0.37568601	          0.22652100	          0.49048952	          0.57714945	          0.24816171	          0.05514392	          0.07433924	          0.08245069	          0.21511231	          0.08532140	          0.06085691	          0.30090470	          0.19321210	          0.10951318	          0.05000048	          0.05000005	          0.05000004	          0.06325884	          0.09524531	          0.11608743	          0.10868966	          0.06090092	          0.05000126	          0.05000020	          0.52294345	          0.08728601	          0.05003623	          0.05000055	          0.05000034	          0.05000030	          0.27659132	          0.59063336	          0.05389201	          0.05903843	          0.05903688	          0.22611499	          0.15996736	          0.15997103	          0.15098510	          0.25599418	          0.34035481	          0.27308957	          0.25862589	          0.33883623	          0.41094090	          0.05000000	          0.06096178	          0.17303966	          0.05000001	          0.05000000	          0.05000002	          0.06070969	          0.06970698	          0.05000000	
          0.56389947	         -2.92220530	          3.21306781	         -6.63554626	          0.75659614	          0.89982948	          0.00347979	         27.84296142	          5.03724489	         -0.18642379	        -16.88107639	         -2.69806142	          7.72285622	         -9.36080902	        -12.17553724	          5.02288643	          1.69639011	         -6.75287307	         15.19690549	         -0.09203706	         17.87716956	         -2.04992241	         -2.06108938	          2.27781474	        -13.15073792	        -13.45136763	          3.67075657	          6.57338651	        -13.47087632	         19.08358085	         20.87775890	         41.68274605	         86.51662706	         86.51662706	          0.37320384	          0.05000001	          0.30519392	          0.05000002	          0.05000002	          0.05000004	          0.11286929	          0.05000005	          0.20075361	          0.05000000	          0.05000002	          0.10807665	          0.31326986	          0.31704365	          0.23906714	          0.18130202	          0.05000006	          0.07592148	          0.14798673	          0.05000002	          0.15518148	          0.15355072	          0.05000002	          0.05000001	          0.46079567	          0.13581020	          0.07917893	          0.05903686	          0.18742557	          0.20661250	          0.15879576	          0.05903639	          0.05903679	          0.05903683	          0.05903684	          0.05903682	          0.05903682	          0.51807088	          0.35235479	          0.19184715	          0.48293424	          0.62249803	          0.21017527	          0.05000000	          0.06916305	          0.06982985	          0.28794609	          0.07226114	          0.05154147	          0.25484487	          0.16363688	          0.09274986	          0.05000049	          0.05000013	          0.05000012	          0.05357573	          0.08066601	          0.12803472	          0.19582158	          0.05903688	          0.05903277	          0.05903688	          0.51309542	          0.07392656	          0.05000053	          0.05003386	          0.05006694	          0.05903454	          0.23425312	          0.56457814	          0.05903333	          0.05000148	          0.05000003	          0.19150327	          0.13548126	          0.13548416	          0.12787370	          0.21680881	          0.28825624	          0.23128738	          0.21903769	          0.28697015	          0.34803766	          0.05000000	          0.05163047	          0.19415220	          0.05000000	          0.05000000	          0.05000001	          0.06321607	          0.05903684	          0.05000078	
          0.57474369	         -2.91462364	          3.42280323	         -6.88049079	          0.77457020	          0.89894998	          0.00316259	         26.95076124	          5.42882102	          0.04736463	        -16.58959632	         -3.09307272	          7.54618868	         -9.72808615	        -14.39112124	          4.42658975	          0.01570139	         -7.07688459	         15.83819424	         -0.13442893	         18.96038475	         -1.80739527	         -2.33462186	          2.37035343	        -14.05412010	        -13.46371555	          4.11284744	          6.00650794	        -13.45086304	         18.94090182	         20.48060087	         43.10480944	         86.51662706	         86.51662706	          0.40790482	          0.32841209	          0.38369799	          0.11088973	          0.11493642	          0.12715067	          0.09559232	          0.14543886	          0.17002400	          0.08230570	          0.05000111	          0.09153322	          0.26531723	          0.26851338	          0.20247287	          0.20098379	          0.05000003	          0.06430013	          0.17977595	          0.26267373	          0.20534547	          0.15879991	          0.05000001	          0.05000001	          0.39026110	          0.11502158	          0.06705905	          0.05000001	          0.15873609	          0.17498605	          0.13448869	          0.05000000	          0.05000000	          0.05000000	          0.05000000	          0.05000001	          0.05000001	          0.66503650	          0.46145544	          0.22392308	          0.69989474	          0.69003972	          0.43476141	          0.07590210	          0.06970698	          0.05914090	          0.24387163	          0.06120004	          0.05000000	          0.27794069	          0.13858877	          0.07855252	          0.05000052	          0.05000002	          0.05000001	          0.05000002	          0.06831839	          0.12036364	          0.17337043	          0.05000018	          0.05000016	          0.05000018	          0.54818419	          0.06968319	          0.05000009	          0.05000015	          0.05000008	          0.05000003	          0.19839568	          0.52724782	          0.05000000	          0.05000005	          0.05000003	          0.16218961	          0.11474555	          0.11474559	          0.11474553	          0.18362159	          0.24413247	          0.19588391	          0.18550931	          0.24304327	          0.29476308	          0.05000005	          0.09718077	          0.16443307	          0.05000004	          0.11153703	          0.05000008	          0.08335795	          0.05000000	          0.05000000	
